<?xml version="1.0" standalone="no"?>
<!DOCTYPE svg PUBLIC "-//W3C//DTD SVG 20010904//EN"
 "http://www.w3.org/TR/2001/REC-SVG-20010904/DTD/svg10.dtd">
<svg version="1.0" xmlns="http://www.w3.org/2000/svg"
 width="970.000000pt" height="687.000000pt" viewBox="0 0 970.000000 687.000000"
 preserveAspectRatio="xMidYMid meet">

<g transform="translate(0.000000,687.000000) scale(0.100000,-0.100000)"
fill="#000000" stroke="none">
<path d="M0 3435 l0 -3435 1512 0 1513 0 -55 47 c-174 150 -198 182 -220 293
-7 36 -24 101 -37 144 -29 99 -29 134 0 177 l23 34 -107 176 c-134 220 -159
270 -159 312 0 42 17 57 68 64 46 6 51 1 145 -122 33 -44 92 -119 130 -167
l70 -87 38 19 c46 24 87 25 136 5 19 -8 61 -15 93 -15 31 0 79 -7 106 -15 27
-8 81 -15 121 -15 40 0 83 -5 97 -11 44 -21 73 -81 127 -270 57 -201 71 -240
102 -282 l20 -29 -129 -129 -129 -129 3118 0 3117 0 0 3435 0 3435 -4850 0
-4850 0 0 -3435z m8674 2323 c28 -132 46 -240 46 -277 0 -36 -1 -35 -56 49
-30 47 -59 86 -63 88 -4 1 -211 -133 -460 -298 -248 -165 -453 -300 -455 -300
-2 0 -7 11 -10 25 -6 24 -7 25 -31 9 -14 -9 -38 -39 -53 -66 -23 -43 -46 -63
-159 -139 -73 -49 -133 -94 -133 -99 0 -14 -50 -1 -72 18 -31 26 -22 73 24
137 23 33 88 161 144 285 98 214 106 229 183 317 45 51 81 97 81 103 0 5 3 10
6 10 3 0 123 25 267 55 144 31 318 68 387 82 69 14 170 36 225 48 55 13 103
23 107 24 4 1 14 -32 22 -71z m-16 -594 l201 -302 -490 -326 c-270 -180 -496
-329 -504 -332 -9 -4 -77 90 -214 295 l-201 301 502 335 c276 184 503 333 504
332 1 -1 92 -138 202 -303z m197 -414 c4 -21 4 -47 1 -57 -8 -26 -67 -63 -99
-63 -22 0 -27 -5 -27 -25 0 -14 -9 -34 -19 -44 -18 -18 -107 -51 -137 -51 -6
0 -26 -22 -43 -49 -35 -53 -79 -81 -131 -81 -21 0 -44 -10 -65 -29 -19 -16
-51 -32 -73 -36 -43 -7 -130 11 -116 25 29 26 689 458 695 454 4 -2 10 -22 14
-44z m-1416 -356 c3 -2 -38 -91 -90 -197 -52 -106 -95 -185 -97 -177 -1 8 1
73 5 143 6 84 5 131 -2 136 -5 4 -44 22 -85 39 -41 17 -95 40 -120 52 l-45 21
215 -7 c118 -3 217 -8 219 -10z m-846 -126 c109 -34 196 -65 195 -70 -5 -14
-271 -319 -275 -315 -2 2 17 64 42 137 25 74 44 134 42 136 -1 1 -47 36 -102
79 -117 91 -122 95 -109 95 5 0 98 -28 207 -62z m-783 -155 c80 -25 167 -52
193 -60 44 -13 48 -16 35 -31 -53 -63 -271 -312 -273 -312 -3 0 13 51 65 210
l21 65 -33 28 c-18 16 -66 53 -105 84 -77 58 -100 82 -67 69 10 -4 84 -28 164
-53z m-2244 -10 c9 -21 49 -117 89 -213 41 -96 101 -240 134 -320 l60 -144
-67 -29 c-37 -15 -87 -37 -112 -47 -25 -11 -133 -56 -240 -100 -107 -45 -247
-103 -310 -130 -63 -27 -241 -101 -395 -165 -154 -64 -320 -134 -370 -156 -49
-21 -92 -36 -97 -31 -4 4 -43 93 -86 197 -44 105 -110 261 -146 349 -37 87
-65 160 -63 163 3 2 96 42 208 89 112 46 213 89 224 94 25 12 459 193 633 263
85 35 251 106 297 126 22 10 50 22 63 26 13 3 51 20 85 35 34 16 66 29 70 30
4 0 15 -17 23 -37z m653 -97 c96 -62 176 -117 178 -122 2 -7 -315 -227 -349
-242 -4 -2 23 43 61 100 104 159 100 138 39 221 -29 40 -68 91 -86 115 -19 23
-30 42 -26 42 5 -1 88 -52 183 -114z m789 -20 l171 -109 -167 -114 c-92 -63
-175 -119 -185 -124 -17 -9 28 67 110 185 18 27 32 55 29 62 -3 7 -39 57 -80
113 -42 55 -76 102 -76 106 0 7 -10 14 198 -119z m-3125 -1393 c37 -108 66
-197 64 -199 -2 -2 -45 44 -96 101 -51 58 -97 105 -103 105 -5 0 -64 -22 -131
-50 -66 -27 -122 -48 -124 -46 -6 5 301 285 313 286 5 0 40 -88 77 -197z
m-555 -559 c13 -9 22 -26 22 -42 0 -15 11 -86 25 -159 22 -122 23 -136 10
-180 -15 -50 -20 -123 -8 -123 3 0 15 7 25 17 10 9 20 14 21 12 2 -2 25 -125
51 -274 99 -559 138 -770 142 -774 4 -4 111 11 184 26 l25 5 -25 -22 c-14 -12
-83 -60 -153 -107 -108 -72 -131 -84 -141 -72 -7 8 -126 195 -264 416 -208
334 -251 407 -247 430 3 16 9 74 14 131 9 96 15 116 100 327 50 124 95 252
100 285 13 82 36 113 86 119 6 0 21 -6 33 -15z m806 -131 c20 -114 81 -457
142 -796 26 -147 45 -268 43 -270 -10 -8 -685 -123 -691 -118 -4 3 -25 110
-47 236 -22 127 -68 383 -101 569 -33 187 -59 341 -57 343 5 4 646 121 673
122 20 1 24 -8 38 -86z m133 -239 c41 -31 63 -72 63 -120 0 -26 8 -46 30 -71
33 -37 39 -85 19 -156 -8 -31 -7 -40 7 -54 18 -18 54 -97 54 -117 0 -8 -10
-26 -22 -41 -19 -25 -20 -28 -5 -37 23 -12 40 -80 28 -112 -6 -14 -28 -34 -49
-45 l-39 -20 -67 372 c-37 205 -70 384 -73 400 -7 35 9 35 54 1z"/>
<path d="M2795 3700 c-3 -5 -3 -21 1 -35 5 -20 2 -30 -13 -40 -27 -19 -47 -69
-39 -99 3 -13 18 -38 32 -55 24 -29 29 -31 99 -31 87 0 121 -11 136 -44 25
-55 -11 -99 -99 -121 -36 -9 -48 -17 -50 -34 -4 -26 17 -28 78 -6 l42 15 11
-30 c6 -17 15 -30 19 -30 14 0 18 19 8 45 -9 23 -6 32 20 61 35 41 40 95 13
143 -22 38 -66 54 -136 50 -55 -3 -97 6 -109 25 -15 21 -8 65 13 85 11 10 40
24 65 31 33 10 44 18 44 32 0 20 -9 21 -72 2 -12 -4 -22 3 -30 20 -12 27 -23
33 -33 16z"/>
</g>
</svg>
